PathFileType	4	(X/Y/Z)	Patient4_TMGait_0pt6_01_left_32.trc.trc
DataRate	CameraRate	NumFrames	NumMarkers	Units	OrigDataRate	OrigDataStartFrame	OrigNumFrames
78.212290502793	78.212290502793	4	33	mm	78.212290502793	124	       141
Frame#	Time	Sacral			L.Shoulder			Chest			R.Shoulder			Neck			R.ASIS			L.ASIS			R.Thigh.Superior			R.Thigh.Lateral			R.Thigh.Inferior			R.Patella			L.Thigh.Superior			L.Thigh.Lateral			L.Thigh.Inferior			L.Patella			L.Shank.Superior			L.Shank.Lateral			L.Shank.Inferior			R.Shank.Superior			R.Shank.Lateral			R.Shank.Inferior			R.Heel			R.Midfoot.Superior			R.Midfoot.Lateral			R.Toe			L.Heel			L.Midfoot.Lateral			L.Midfoot.Superior			L.Toe			L.Elbow			L.Wrist			R.Elbow			R.Wrist			
		X1	Y1	Z1	X2	Y2	Z2	X3	Y3	Z3	X4	Y4	Z4	X5	Y5	Z5	X6	Y6	Z6	X7	Y7	Z7	X8	Y8	Z8	X9	Y9	Z9	X10	Y10	Z10	X11	Y11	Z11	X12	Y12	Z12	X13	Y13	Z13	X14	Y14	Z14	X15	Y15	Z15	X16	Y16	Z16	X17	Y17	Z17	X18	Y18	Z18	X19	Y19	Z19	X20	Y20	Z20	X21	Y21	Z21	X22	Y22	Z22	X23	Y23	Z23	X24	Y24	Z24	X25	Y25	Z25	X26	Y26	Z26	X27	Y27	Z27	X28	Y28	Z28	X29	Y29	Z29	X30	Y30	Z30	X31	Y31	Z31	X32	Y32	Z32	X33	Y33	Z33	

124	40.452642857143	745.430813916276	1000.636296920584	520.523728954070	881.248113860609	1429.341398001523	332.114163100240	1007.515568126468	1362.605142675153	476.771247423348	945.913647193153	1431.870004681661	660.067232315056	882.260574917044	1487.196637901785	487.024949864113	976.787227786674	934.337996170462	621.518786058562	946.512580264966	953.388313613678	347.304614876129	971.989801828669	720.670309911036	593.441946715044	865.299022402125	627.449778249778	652.083303798537	924.925256455914	561.668264315767	571.935923482210	902.763981127674	475.848492182319	573.712386108930	1024.531196788188	767.580841003929	378.436676288764	970.514352408677	637.707458204982	305.849471324657	1073.556477995206	579.207793613821	366.192177621334	1096.095246742735	511.385561817326	366.167223372365	1078.309338786974	437.678050017848	357.478174359214	1007.519790551250	310.059840478459	308.962664580613	1088.924976340400	208.868317822137	366.728755487623	862.170850126088	393.462733860778	578.589319470246	774.657812597152	299.883923020561	636.840986866846	802.116534570641	201.782398102927	570.532477954660	649.348751100982	45.691059312661	533.254281686464	820.930731156845	96.016939169864	571.488341996716	731.095450751457	37.584881269451	608.565590988606	939.461481253465	40.485088442064	602.267511895693	993.797775521180	39.352336024582	404.771346112555	1069.193524759549	38.641023635106	325.630184651226	1147.033667219997	106.877509949958	349.676321506484	1278.219806496820	62.747993433422	325.782994140518	767.475487581931	1090.370985893526	237.802222706233	758.560496504896	830.220496214329	242.472752984513	1088.437775330446	1117.515534318087	759.559884328497	1275.794074368329	1245.521844438451	659.835005742014	
125	40.465428571429	746.052860871726	999.301292915777	517.629197136230	881.531485153483	1428.001320417859	329.612414593669	1007.321722561711	1361.962167175646	474.940471434749	944.538280672782	1431.077526165135	658.051380960762	881.892024118324	1486.245519556662	484.491281056359	977.139101749492	933.097963859126	619.797813082084	948.043806982128	952.602799396567	345.669130132841	972.382014195159	719.322266822475	591.634309003582	865.118539968572	626.402573917417	650.004214807257	924.730513371764	560.159201561983	570.131079546369	901.823152960064	473.767487978621	571.675576719143	1026.236285531262	765.880915224616	378.019337305678	971.750442906125	636.645457123751	305.557717237233	1073.852987464177	577.732131489887	367.398896245010	1095.019532507378	508.715533623675	367.899782269753	1076.291505845241	434.691250973823	358.666956618389	1003.312669954537	308.582394877318	309.103922968657	1081.296881615691	205.553559614059	368.520877230619	859.879452733692	391.957481360955	576.881785472689	771.048996047533	299.901699181709	635.668098367960	796.578176353127	201.198109859371	569.644468349012	641.759311720705	46.497810448296	533.260299909348	813.329034492849	95.811643792812	571.055803865269	723.482647172279	37.909602510783	608.455886921394	931.903212765108	40.015359535292	602.355561583058	981.238347502831	38.383297167309	405.100722168705	1057.366131243410	36.886458903857	326.513263186630	1136.601758232708	102.960777159087	352.283452403404	1267.396948001881	56.073371751750	329.048541713856	770.949951653692	1087.655272985777	234.999410461697	765.888437686166	827.283698504346	239.350283562110	1084.448775389971	1115.541542926956	760.074737073876	1272.806668195163	1241.809488563122	659.336847968999	
126	40.478214285714	746.667661874361	998.241797482840	514.685885444428	881.933995860192	1426.919315863619	327.052554179595	1007.226952418859	1361.550388085914	473.057454535700	943.269802895607	1430.519197803164	655.988490409744	881.641604174803	1485.553718381588	481.906198634813	977.550004311410	932.089477706957	617.886338910345	949.472349465377	952.097629013726	343.874324231182	972.802632723077	718.209420468130	589.685952545614	864.988624259488	625.592780693372	647.852660122148	924.624646889200	558.864472920466	568.308242486118	901.049672423392	471.806530306282	569.768323713832	1027.747158580900	764.426367948996	377.420829780969	972.791570675887	635.887868223939	305.047231200616	1074.029934297105	576.551725528406	368.294334199452	1093.905071757312	506.525707431519	369.252219954617	1074.400868641805	432.271632075563	359.486583974868	999.662051862729	307.493318630308	308.926912187418	1074.513421300218	202.988903086004	369.852656970126	857.592113329499	390.667084973274	575.267592112032	767.392282354440	300.242784711669	634.545241590353	791.090182627070	200.893675774379	568.906739474060	634.190886055223	47.666848619680	533.351510736960	805.878064032886	95.689111237814	570.769563629344	715.911264119967	38.350331546913	608.396116729998	924.379327782093	39.539215618639	602.433312954872	970.265647883998	37.758790367111	405.241431861927	1046.910877668148	35.782523104102	327.039330532536	1127.121788619399	100.167911442637	354.241417553792	1257.602199369469	51.317882728006	331.370075622221	775.091078667784	1085.041125366623	232.009424458024	774.183365459294	824.478089625771	235.869194850669	1079.650456107345	1113.387236441001	760.711404462445	1270.092159605374	1236.536748155340	659.171075540398	
127	40.491000000000	747.271847500447	997.548373375722	511.721862084171	882.431454835386	1426.185810727965	324.463751372391	1007.233031441783	1361.424900313440	471.117403371425	942.172205726405	1430.276343138783	653.871789442894	881.504264291664	1485.183541658057	479.296184685410	977.990764084116	931.395281918829	615.766813518795	950.757035951315	951.938805287927	341.869393107312	973.200503248674	717.406990795969	587.612345718848	864.912665873991	625.073779214068	645.659308258752	924.652238248419	557.850435409090	566.500181458942	900.540279479043	470.004947907531	568.087155889696	1029.039555396579	763.372162716143	376.573028813417	973.656961461256	635.489101205920	304.292036810824	1074.082675793763	575.709699070238	368.771331407548	1092.756018922607	504.857598137231	370.149622616297	1072.616819970075	430.429313344973	359.938932577816	996.497678942931	306.807865587908	308.450176874095	1068.489004349018	201.147922158452	370.748171042543	855.390585774807	389.634694531434	573.814157481888	763.733969922000	300.973478791857	633.505369260541	785.711124512435	200.924910950046	568.362127684104	626.668848074647	49.291556764483	533.540036442211	798.628459978548	95.666737897268	570.664636590128	708.395056807538	38.950376059562	608.401570882840	916.882658701068	39.072272728445	602.495689813147	960.757177929171	37.441834715686	405.250139413624	1037.718355745455	35.232161490147	327.276622719918	1118.535178441746	98.402782251685	355.574514396508	1248.774081605558	48.320845333382	332.806263730793	779.895068659124	1082.647540496684	228.860165715042	783.437576993435	821.944879661230	232.072134927072	1074.032396746454	1111.173823682326	761.387455693903	1267.630977280487	1229.635552540718	659.331987412832	
